<svg width="38" height="36" viewBox="0 0 38 36" fill="none" xmlns="http://www.w3.org/2000/svg">
<path d="M17.2864 1.84744C18.0637 0.555803 19.9363 0.555803 20.7136 1.84744L25.4755 9.75998C25.7547 10.224 26.2102 10.5549 26.7378 10.6771L35.7346 12.7608C37.2032 13.1009 37.7819 14.8819 36.7936 16.0203L30.7399 22.9942C30.3848 23.4032 30.2109 23.9386 30.2577 24.4782L31.0562 33.6785C31.1865 35.1803 29.6715 36.281 28.2835 35.693L19.7802 32.0905C19.2815 31.8793 18.7185 31.8793 18.2198 32.0905L9.71654 35.693C8.32847 36.281 6.81351 35.1803 6.94385 33.6785L7.74232 24.4782C7.78914 23.9386 7.61516 23.4032 7.26014 22.9942L1.20636 16.0203C0.218138 14.8819 0.796801 13.1009 2.26543 12.7608L11.2622 10.6771C11.7898 10.5549 12.2453 10.224 12.5245 9.75998L17.2864 1.84744Z" fill="#F8CA72"/>
</svg>
